<?xml version="1.0" encoding="UTF-8" standalone="no"?>
<!-- Created with Inkscape (http://www.inkscape.org/) -->
<svg
   xmlns:dc="http://purl.org/dc/elements/1.1/"
   xmlns:cc="http://creativecommons.org/ns#"
   xmlns:rdf="http://www.w3.org/1999/02/22-rdf-syntax-ns#"
   xmlns:svg="http://www.w3.org/2000/svg"
   xmlns="http://www.w3.org/2000/svg"
   xmlns:sodipodi="http://sodipodi.sourceforge.net/DTD/sodipodi-0.dtd"
   xmlns:inkscape="http://www.inkscape.org/namespaces/inkscape"
   width="400"
   height="200"
   id="svg4766"
   sodipodi:version="0.32"
   inkscape:version="0.46"
   version="1.0"
   sodipodi:docname="logo-dropshadow.svg"
   inkscape:output_extension="org.inkscape.output.svg.inkscape"
   inkscape:export-filename="/home/keith/Desktop/nicira/logo/logo-dropshadow-white-bg.jpg.png"
   inkscape:export-xdpi="90"
   inkscape:export-ydpi="90">
  <defs
     id="defs4768">
    <inkscape:perspective
       sodipodi:type="inkscape:persp3d"
       inkscape:vp_x="0 : 526.18109 : 1"
       inkscape:vp_y="0 : 1000 : 0"
       inkscape:vp_z="744.09448 : 526.18109 : 1"
       inkscape:persp3d-origin="372.04724 : 350.78739 : 1"
       id="perspective4774" />
  </defs>
  <sodipodi:namedview
     id="base"
     pagecolor="#ffffff"
     bordercolor="#666666"
     borderopacity="1.0"
     gridtolerance="10000"
     guidetolerance="10"
     objecttolerance="10"
     inkscape:pageopacity="0"
     inkscape:pageshadow="2"
     inkscape:zoom="1.979899"
     inkscape:cx="121.45171"
     inkscape:cy="76.383745"
     inkscape:document-units="px"
     inkscape:current-layer="layer1"
     showgrid="false"
     inkscape:window-width="1920"
     inkscape:window-height="1128"
     inkscape:window-x="0"
     inkscape:window-y="25" />
  <metadata
     id="metadata4771">
    <rdf:RDF>
      <cc:Work
         rdf:about="">
        <dc:format>image/svg+xml</dc:format>
        <dc:type
           rdf:resource="http://purl.org/dc/dcmitype/StillImage" />
      </cc:Work>
    </rdf:RDF>
  </metadata>
  <g
     inkscape:label="Layer 1"
     inkscape:groupmode="layer"
     id="layer1">
    <g
       style="fill:#cfcfcf;fill-opacity:1"
       transform="matrix(1.25,0,0,-1.25,376.69856,320.23266)"
       id="g5876" />
    <g
       id="g4834"
       transform="translate(-2.9064111,-49.929272)">
      <g
         style="fill:#1c6434;fill-opacity:1"
         transform="matrix(1.25,0,0,-1.25,52.055123,189.30458)"
         id="g5818">
        <path
           id="path5820"
           style="fill:#1c6434;fill-opacity:1;fill-rule:nonzero;stroke:none"
           d="M 0,0 C 2.292,11.95 5.079,23.793 8.798,35.464 C 12.79,46.991 16.667,58.931 25.979,68.766 C 28.446,71.06 31.577,73.182 35.373,73.835 C 39.214,74.39 42.607,73.665 45.813,72.053 C 52.142,68.645 55.293,62.483 57.358,56.766 C 61.291,45.004 61.942,32.821 61.604,20.855 C 60.846,32.756 58.964,44.847 54.229,55.495 C 51.846,60.696 48.332,65.6 43.659,67.468 C 38.779,69.43 34.081,68.129 30.788,64.021 C 23.854,55.93 20.321,44.134 17.303,33 C 14.4,21.637 12.358,9.964 10.817,-1.735 C 10.78,-1.746 9.476,-10.622 4.088,-9.957 C -1.398,-9.279 -0.035,0.021 0,0" />
      </g>
      <path
         id="path5822"
         style="fill:#1c6434;fill-opacity:1;fill-rule:nonzero;stroke:none"
         d="M 180.29363,110.55395 C 177.42863,125.4902 173.94363,140.2952 169.29613,154.8852 C 164.30613,169.29395 159.45987,184.21645 147.81862,196.51145 C 144.73612,199.37895 140.82237,202.03145 136.07612,202.8477 C 131.27612,203.54145 127.03487,202.6352 123.02737,200.62145 C 115.11486,196.3602 111.17736,188.6577 108.59612,181.51145 C 103.67862,166.8102 102.86487,151.5802 103.28737,136.6227 C 104.23487,151.49895 106.58862,166.61145 112.50736,179.9227 C 115.48611,186.4227 119.87862,192.5552 125.72112,194.88895 C 131.81987,197.34145 137.69237,195.71645 141.80862,190.5802 C 150.47612,180.4677 154.89237,165.7227 158.66487,151.80395 C 162.29483,137.59895 164.84613,123.0077 166.77233,108.38645 C 166.81863,108.37145 168.44863,97.276455 175.18233,98.107705 C 182.04113,98.956455 180.33613,110.5802 180.29363,110.55395" />
      <g
         id="g5824"
         transform="matrix(1.25,0,0,-1.25,211.98631,167.41083)"
         style="fill:#a5a5a5;fill-opacity:1">
        <path
           d="M 0,0 L -13.016,28.836 L -13.016,0 L -19.946,0 L -19.946,35.292 L -8.518,35.292 L 4.551,6.402 L 4.551,35.292 L 11.482,35.292 L 11.482,0 L 0,0 z"
           style="fill:#a5a5a5;fill-opacity:1;fill-rule:nonzero;stroke:none"
           id="path5826" />
      </g>
      <path
         d="M 235.26457,134.20971 L 244.39082,134.20971 L 244.39082,167.41096 L 235.26457,167.41096 L 235.26457,134.20971 z M 235.26457,120.71596 L 244.39082,120.71596 L 244.39082,128.05721 L 235.26457,128.05721 L 235.26457,120.71596 z"
         style="fill:#a5a5a5;fill-opacity:1;fill-rule:nonzero;stroke:none"
         id="path5828" />
      <g
         id="g5830"
         transform="matrix(1.25,0,0,-1.25,268.33144,168.13845)"
         style="fill:#a5a5a5;fill-opacity:1">
        <path
           d="M 0,0 C -8.678,0 -14.074,5.291 -14.074,13.969 C -14.074,22.54 -8.201,27.673 0.211,27.673 C 2.752,27.673 5.344,27.302 7.777,26.562 L 7.461,21.376 C 5.768,22.17 3.916,22.698 2.01,22.698 C -3.227,22.698 -6.244,19.048 -6.244,13.969 C -6.244,9.048 -3.387,4.973 1.852,4.973 C 3.861,4.973 5.768,5.396 7.566,6.296 L 7.83,1.11 C 5.291,0.264 2.646,0 0,0"
           style="fill:#a5a5a5;fill-opacity:1;fill-rule:nonzero;stroke:none"
           id="path5832" />
      </g>
      <path
         d="M 284.13707,134.20971 L 293.26332,134.20971 L 293.26332,167.41096 L 284.13707,167.41096 L 284.13707,134.20971 z M 284.13707,120.71596 L 293.26332,120.71596 L 293.26332,128.05721 L 284.13707,128.05721 L 284.13707,120.71596 z"
         style="fill:#a5a5a5;fill-opacity:1;fill-rule:nonzero;stroke:none"
         id="path5834" />
      <g
         id="g5836"
         transform="matrix(1.25,0,0,-1.25,321.70069,142.01408)"
         style="fill:#a5a5a5;fill-opacity:1">
        <path
           d="M 0,0 C -0.74,0.265 -1.533,0.37 -2.275,0.37 C -7.197,0.37 -8.836,-4.338 -8.836,-8.466 L -8.836,-20.317 L -16.139,-20.317 L -16.139,0.317 C -16.139,2.275 -16.191,4.233 -16.402,6.19 L -9.523,6.19 L -9.365,1.059 C -8.148,3.969 -5.502,6.826 -1.904,6.826 C -1.164,6.826 -0.477,6.773 0.211,6.562 L 0,0 z"
           style="fill:#a5a5a5;fill-opacity:1;fill-rule:nonzero;stroke:none"
           id="path5838" />
      </g>
      <g
         id="g5840"
         transform="matrix(1.25,0,0,-1.25,344.84756,151.60395)"
         style="fill:#a5a5a5;fill-opacity:1">
        <path
           d="M 0,0 L -0.953,0 C -4.656,0 -10.424,-0.424 -10.424,-5.026 C -10.424,-7.619 -8.254,-8.678 -6.031,-8.678 C -1.588,-8.678 0,-5.238 0,-1.323 L 0,0 z M 0.211,-12.646 L 0.053,-8.519 C -1.746,-11.376 -5.027,-13.228 -8.414,-13.228 C -13.281,-13.228 -17.408,-10.847 -17.408,-5.556 C -17.408,1.481 -10.635,3.862 -3.176,3.862 C -2.223,3.862 -1.006,3.81 0,3.757 L 0,4.656 C 0,8.359 -2.328,9.947 -6.191,9.947 C -8.889,9.947 -11.746,9.313 -14.232,7.831 L -14.551,12.752 C -11.801,13.704 -8.148,14.445 -5.238,14.445 C 1.906,14.445 7.037,11.905 7.037,4.127 L 7.037,-6.402 C 7.037,-9.101 7.09,-10.847 7.303,-12.646 L 0.211,-12.646 z"
           style="fill:#a5a5a5;fill-opacity:1;fill-rule:nonzero;stroke:none"
           id="path5842" />
      </g>
      <g
         id="g5844"
         transform="matrix(1.25,0,0,-1.25,197.68256,191.77683)"
         style="fill:#a5a5a5;fill-opacity:1">
        <path
           d="M 0,0 L -7.612,13.267 L -7.612,0 L -8.903,0 L -8.903,14.848 L -7.078,14.848 L 0.533,1.58 L 0.533,14.848 L 1.824,14.848 L 1.824,0 L 0,0 z"
           style="fill:#a5a5a5;fill-opacity:1;fill-rule:nonzero;stroke:none"
           id="path5846" />
      </g>
      <g
         id="g5848"
         transform="matrix(1.25,0,0,-1.25,210.42669,191.77683)"
         style="fill:#a5a5a5;fill-opacity:1">
        <path
           d="M 0,0 L 0,14.848 L 7.102,14.848 L 7.102,13.645 L 1.336,13.645 L 1.336,8.214 L 6.789,8.214 L 6.789,7.057 L 1.336,7.057 L 1.336,1.202 L 7.346,1.202 L 7.346,0 L 0,0 z"
           style="fill:#a5a5a5;fill-opacity:1;fill-rule:nonzero;stroke:none"
           id="path5850" />
      </g>
      <g
         id="g5852"
         transform="matrix(1.25,0,0,-1.25,233.88369,174.7212)"
         style="fill:#a5a5a5;fill-opacity:1">
        <path
           d="M 0,0 L 0,-13.645 L -1.336,-13.645 L -1.336,0 L -5.678,0 L -5.678,1.203 L 4.361,1.203 L 4.361,0 L 0,0 z"
           style="fill:#a5a5a5;fill-opacity:1;fill-rule:nonzero;stroke:none"
           id="path5854" />
      </g>
      <g
         id="g5856"
         transform="matrix(1.25,0,0,-1.25,264.63081,191.77683)"
         style="fill:#a5a5a5;fill-opacity:1">
        <path
           d="M 0,0 L -1.648,0 L -5.455,13.467 L -9.305,0 L -10.975,0 L -15.293,14.848 L -13.869,14.848 L -10.107,1.38 L -6.256,14.848 L -4.586,14.848 L -0.758,1.38 L 3.004,14.848 L 4.295,14.848 L 0,0 z"
           style="fill:#a5a5a5;fill-opacity:1;fill-rule:nonzero;stroke:none"
           id="path5858" />
      </g>
      <g
         id="g5860"
         transform="matrix(1.25,0,0,-1.25,285.19231,174.49783)"
         style="fill:#a5a5a5;fill-opacity:1">
        <path
           d="M 0,0 C -3.561,0 -5.098,-3.295 -5.098,-6.411 C -5.098,-9.527 -3.539,-12.821 0,-12.821 C 3.607,-12.821 5.098,-9.571 5.098,-6.411 C 5.098,-3.25 3.607,0 0,0 M 0,-14.068 C -4.541,-14.068 -6.498,-10.529 -6.498,-6.411 C -6.498,-2.427 -4.385,1.246 0,1.246 C 4.52,1.246 6.5,-2.315 6.5,-6.411 C 6.5,-10.417 4.408,-14.068 0,-14.068"
           style="fill:#a5a5a5;fill-opacity:1;fill-rule:nonzero;stroke:none"
           id="path5862" />
      </g>
      <g
         id="g5864"
         transform="matrix(1.25,0,0,-1.25,306.56444,174.7212)"
         style="fill:#a5a5a5;fill-opacity:1">
        <path
           d="M 0,0 L -1.648,0 L -1.648,-5.387 L -0.09,-5.387 C 1.668,-5.387 3.648,-4.674 3.648,-2.604 C 3.648,-0.467 2.002,0 0,0 M 4.674,-13.645 L 2.469,-8.569 C 1.779,-6.989 1.334,-6.588 -0.447,-6.588 L -1.648,-6.588 L -1.648,-13.645 L -2.984,-13.645 L -2.984,1.203 L 0.578,1.203 C 3.004,1.203 5.053,0.067 5.053,-2.648 C 5.053,-4.496 3.471,-5.831 1.713,-6.054 C 2.736,-6.254 3.227,-6.967 3.627,-7.857 L 6.209,-13.645 L 4.674,-13.645 z"
           style="fill:#a5a5a5;fill-opacity:1;fill-rule:nonzero;stroke:none"
           id="path5866" />
      </g>
      <g
         id="g5868"
         transform="matrix(1.25,0,0,-1.25,333.80319,191.77683)"
         style="fill:#a5a5a5;fill-opacity:1">
        <path
           d="M 0,0 L -7.301,7.501 L -7.301,0 L -8.637,0 L -8.637,14.848 L -7.301,14.848 L -7.301,8.08 L -0.49,14.848 L 1.225,14.848 L -6.01,7.88 L 1.848,0 L 0,0 z"
           style="fill:#a5a5a5;fill-opacity:1;fill-rule:nonzero;stroke:none"
           id="path5870" />
      </g>
      <g
         id="g5872"
         transform="matrix(1.25,0,0,-1.25,347.43844,192.0832)"
         style="fill:#a5a5a5;fill-opacity:1">
        <path
           d="M 0,0 C -1.113,0 -2.248,0.156 -3.271,0.623 L -3.162,2.093 C -2.182,1.447 -1.092,1.247 0.066,1.247 C 2.002,1.247 3.428,2.137 3.428,4.185 C 3.428,5.587 2.203,6.366 0.779,7.168 L -0.758,8.036 C -2.139,8.814 -3.385,9.794 -3.385,11.508 C -3.385,14.046 -1.047,15.314 1.268,15.314 C 2.225,15.314 3.16,15.182 4.051,14.847 L 3.918,13.512 C 3.16,13.935 2.068,14.068 1.225,14.068 C -0.424,14.068 -2.004,13.444 -2.004,11.575 C -2.004,10.373 -1.047,9.661 0.199,8.971 L 1.736,8.103 C 3.295,7.234 4.83,6.166 4.83,4.163 C 4.83,1.514 2.648,0 0,0"
           style="fill:#a5a5a5;fill-opacity:1;fill-rule:nonzero;stroke:none"
           id="path5874" />
      </g>
      <path
         d="M -132.53201,122.83455 L -145.54801,151.67055 L -145.54801,122.83455 L -152.47801,122.83455 L -152.47801,158.12655 L -141.05001,158.12655 L -127.98101,129.23655 L -127.98101,158.12655 L -121.05001,158.12655 L -121.05001,122.83455 L -132.53201,122.83455 z"
         style="fill:#cfcfcf;fill-opacity:1;fill-rule:nonzero;stroke:none"
         id="path5878"
         transform="matrix(1.25,0,0,-1.25,376.69856,320.23266)" />
      <path
         d="M 234.31181,133.48835 L 243.43806,133.48835 L 243.43806,166.6896 L 234.31181,166.6896 L 234.31181,133.48835 z M 234.31181,119.9946 L 243.43806,119.9946 L 243.43806,127.33585 L 234.31181,127.33585 L 234.31181,119.9946 z"
         style="fill:#cfcfcf;fill-opacity:1;fill-rule:nonzero;stroke:none"
         id="path5880" />
      <g
         id="g5882"
         transform="matrix(1.25,0,0,-1.25,267.37868,167.41709)"
         style="fill:#cfcfcf;fill-opacity:1">
        <path
           d="M 0,0 C -8.678,0 -14.074,5.291 -14.074,13.969 C -14.074,22.54 -8.201,27.673 0.211,27.673 C 2.752,27.673 5.344,27.302 7.777,26.562 L 7.461,21.376 C 5.768,22.17 3.916,22.698 2.01,22.698 C -3.227,22.698 -6.244,19.048 -6.244,13.969 C -6.244,9.048 -3.387,4.973 1.852,4.973 C 3.861,4.973 5.768,5.396 7.566,6.296 L 7.83,1.11 C 5.291,0.264 2.646,0 0,0"
           style="fill:#cfcfcf;fill-opacity:1;fill-rule:nonzero;stroke:none"
           id="path5884" />
      </g>
      <path
         d="M 283.18431,133.48835 L 292.31056,133.48835 L 292.31056,166.6896 L 283.18431,166.6896 L 283.18431,133.48835 z M 283.18431,119.9946 L 292.31056,119.9946 L 292.31056,127.33585 L 283.18431,127.33585 L 283.18431,119.9946 z"
         style="fill:#cfcfcf;fill-opacity:1;fill-rule:nonzero;stroke:none"
         id="path5886" />
      <g
         id="g5888"
         transform="matrix(1.25,0,0,-1.25,320.74793,141.29272)"
         style="fill:#cfcfcf;fill-opacity:1">
        <path
           d="M 0,0 C -0.74,0.265 -1.533,0.37 -2.275,0.37 C -7.197,0.37 -8.836,-4.338 -8.836,-8.466 L -8.836,-20.317 L -16.139,-20.317 L -16.139,0.317 C -16.139,2.275 -16.191,4.233 -16.402,6.19 L -9.523,6.19 L -9.365,1.059 C -8.148,3.969 -5.502,6.826 -1.904,6.826 C -1.164,6.826 -0.477,6.773 0.211,6.562 L 0,0 z"
           style="fill:#cfcfcf;fill-opacity:1;fill-rule:nonzero;stroke:none"
           id="path5890" />
      </g>
      <g
         id="g5892"
         transform="matrix(1.25,0,0,-1.25,343.8948,150.88259)"
         style="fill:#cfcfcf;fill-opacity:1">
        <path
           d="M 0,0 L -0.953,0 C -4.656,0 -10.424,-0.424 -10.424,-5.026 C -10.424,-7.619 -8.254,-8.678 -6.031,-8.678 C -1.588,-8.678 0,-5.238 0,-1.323 L 0,0 z M 0.211,-12.646 L 0.053,-8.519 C -1.746,-11.376 -5.027,-13.228 -8.414,-13.228 C -13.281,-13.228 -17.408,-10.847 -17.408,-5.556 C -17.408,1.481 -10.635,3.862 -3.176,3.862 C -2.223,3.862 -1.006,3.81 0,3.757 L 0,4.656 C 0,8.359 -2.328,9.947 -6.191,9.947 C -8.889,9.947 -11.746,9.313 -14.232,7.831 L -14.551,12.752 C -11.801,13.704 -8.148,14.445 -5.238,14.445 C 1.906,14.445 7.037,11.905 7.037,4.127 L 7.037,-6.402 C 7.037,-9.101 7.09,-10.847 7.303,-12.646 L 0.211,-12.646 z"
           style="fill:#cfcfcf;fill-opacity:1;fill-rule:nonzero;stroke:none"
           id="path5894" />
      </g>
      <g
         id="g5896"
         transform="matrix(1.25,0,0,-1.25,196.7298,191.05547)"
         style="fill:#cfcfcf;fill-opacity:1">
        <path
           d="M 0,0 L -7.612,13.267 L -7.612,0 L -8.903,0 L -8.903,14.848 L -7.078,14.848 L 0.533,1.58 L 0.533,14.848 L 1.824,14.848 L 1.824,0 L 0,0 z"
           style="fill:#cfcfcf;fill-opacity:1;fill-rule:nonzero;stroke:none"
           id="path5898" />
      </g>
      <g
         id="g5900"
         transform="matrix(1.25,0,0,-1.25,209.47393,191.05547)"
         style="fill:#cfcfcf;fill-opacity:1">
        <path
           d="M 0,0 L 0,14.848 L 7.102,14.848 L 7.102,13.645 L 1.336,13.645 L 1.336,8.214 L 6.789,8.214 L 6.789,7.057 L 1.336,7.057 L 1.336,1.202 L 7.346,1.202 L 7.346,0 L 0,0 z"
           style="fill:#cfcfcf;fill-opacity:1;fill-rule:nonzero;stroke:none"
           id="path5902" />
      </g>
      <g
         id="g5904"
         transform="matrix(1.25,0,0,-1.25,232.93093,173.99984)"
         style="fill:#cfcfcf;fill-opacity:1">
        <path
           d="M 0,0 L 0,-13.645 L -1.336,-13.645 L -1.336,0 L -5.678,0 L -5.678,1.203 L 4.361,1.203 L 4.361,0 L 0,0 z"
           style="fill:#cfcfcf;fill-opacity:1;fill-rule:nonzero;stroke:none"
           id="path5906" />
      </g>
      <g
         id="g5908"
         transform="matrix(1.25,0,0,-1.25,263.67805,191.05547)"
         style="fill:#cfcfcf;fill-opacity:1">
        <path
           d="M 0,0 L -1.648,0 L -5.455,13.467 L -9.305,0 L -10.975,0 L -15.293,14.848 L -13.869,14.848 L -10.107,1.38 L -6.256,14.848 L -4.586,14.848 L -0.758,1.38 L 3.004,14.848 L 4.295,14.848 L 0,0 z"
           style="fill:#cfcfcf;fill-opacity:1;fill-rule:nonzero;stroke:none"
           id="path5910" />
      </g>
      <g
         id="g5912"
         transform="matrix(1.25,0,0,-1.25,284.23955,173.77647)"
         style="fill:#cfcfcf;fill-opacity:1">
        <path
           d="M 0,0 C -3.561,0 -5.098,-3.295 -5.098,-6.411 C -5.098,-9.527 -3.539,-12.821 0,-12.821 C 3.607,-12.821 5.098,-9.571 5.098,-6.411 C 5.098,-3.25 3.607,0 0,0 M 0,-14.068 C -4.541,-14.068 -6.498,-10.529 -6.498,-6.411 C -6.498,-2.427 -4.385,1.246 0,1.246 C 4.52,1.246 6.5,-2.315 6.5,-6.411 C 6.5,-10.417 4.408,-14.068 0,-14.068"
           style="fill:#cfcfcf;fill-opacity:1;fill-rule:nonzero;stroke:none"
           id="path5914" />
      </g>
      <g
         id="g5916"
         transform="matrix(1.25,0,0,-1.25,305.61168,173.99984)"
         style="fill:#cfcfcf;fill-opacity:1">
        <path
           d="M 0,0 L -1.648,0 L -1.648,-5.387 L -0.09,-5.387 C 1.668,-5.387 3.648,-4.674 3.648,-2.604 C 3.648,-0.467 2.002,0 0,0 M 4.674,-13.645 L 2.469,-8.569 C 1.779,-6.989 1.334,-6.588 -0.447,-6.588 L -1.648,-6.588 L -1.648,-13.645 L -2.984,-13.645 L -2.984,1.203 L 0.578,1.203 C 3.004,1.203 5.053,0.067 5.053,-2.648 C 5.053,-4.496 3.471,-5.831 1.713,-6.054 C 2.736,-6.254 3.227,-6.967 3.627,-7.857 L 6.209,-13.645 L 4.674,-13.645 z"
           style="fill:#cfcfcf;fill-opacity:1;fill-rule:nonzero;stroke:none"
           id="path5918" />
      </g>
      <g
         id="g5920"
         transform="matrix(1.25,0,0,-1.25,332.85043,191.05547)"
         style="fill:#cfcfcf;fill-opacity:1">
        <path
           d="M 0,0 L -7.301,7.501 L -7.301,0 L -8.637,0 L -8.637,14.848 L -7.301,14.848 L -7.301,8.08 L -0.49,14.848 L 1.225,14.848 L -6.01,7.88 L 1.848,0 L 0,0 z"
           style="fill:#cfcfcf;fill-opacity:1;fill-rule:nonzero;stroke:none"
           id="path5922" />
      </g>
      <g
         id="g5924"
         transform="matrix(1.25,0,0,-1.25,346.48568,191.36184)"
         style="fill:#cfcfcf;fill-opacity:1">
        <path
           d="M 0,0 C -1.113,0 -2.248,0.156 -3.271,0.623 L -3.162,2.093 C -2.182,1.447 -1.092,1.247 0.066,1.247 C 2.002,1.247 3.428,2.137 3.428,4.185 C 3.428,5.587 2.203,6.366 0.779,7.168 L -0.758,8.036 C -2.139,8.814 -3.385,9.794 -3.385,11.508 C -3.385,14.046 -1.047,15.314 1.268,15.314 C 2.225,15.314 3.16,15.182 4.051,14.847 L 3.918,13.512 C 3.16,13.935 2.068,14.068 1.225,14.068 C -0.424,14.068 -2.004,13.444 -2.004,11.575 C -2.004,10.373 -1.047,9.661 0.199,8.971 L 1.736,8.103 C 3.295,7.234 4.83,6.166 4.83,4.163 C 4.83,1.514 2.648,0 0,0"
           style="fill:#cfcfcf;fill-opacity:1;fill-rule:nonzero;stroke:none"
           id="path5926" />
      </g>
    </g>
  </g>
</svg>
